PathFileType	4	(X/Y/Z)	/Users/mathieubourgeois/Desktop/Analyse/Traitement/Sujet_05/Data/Transformed_Sujet_05_velo_100.trc
DataRate	CameraRate	NumFrames	NumMarkers	Units	OrigDataRate	OrigDataStartFrame	OrigNumFrames
120.000000	120.000000	4	36	mm	120.000000	0	1924
Frame#	Time	RFHD			RANE			STRN			LANI			LKNE			T10			RHUM			RWRB			C7			LFWT			LTOE			RTOE			LWRA			LBWT			RBWT			RFWT			LKNI			RKNI			RKNE			LANE			RANI			LHEE			RHEE			LHUM			LRAD			RRAD			RWRA			LWRB			LFHD			LBHD			RBHD			RSHO			LSHO			CLAV			LCAR			RCAR			
		X1	Y1	Z1	X2	Y2	Z2	X3	Y3	Z3	X4	Y4	Z4	X5	Y5	Z5	X6	Y6	Z6	X7	Y7	Z7	X8	Y8	Z8	X9	Y9	Z9	X10	Y10	Z10	X11	Y11	Z11	X12	Y12	Z12	X13	Y13	Z13	X14	Y14	Z14	X15	Y15	Z15	X16	Y16	Z16	X17	Y17	Z17	X18	Y18	Z18	X19	Y19	Z19	X20	Y20	Z20	X21	Y21	Z21	X22	Y22	Z22	X23	Y23	Z23	X24	Y24	Z24	X25	Y25	Z25	X26	Y26	Z26	X27	Y27	Z27	X28	Y28	Z28	X29	Y29	Z29	X30	Y30	Z30	X31	Y31	Z31	X32	Y32	Z32	X33	Y33	Z33	X34	Y34	Z34	X35	Y35	Z35	X36	Y36	Z36	

1	0	142.5942535400391	1358.9150390625	100.4881896972656	-172.6849670410157	280.7353210449219	202.0172271728515	-211.9004669189453	1145.843505859375	29.24388694763174	-300.4111328125	573.8789672851562	-65.9337234497071	-71.06672668457028	855.9951782226562	-174.7062072753907	-332.1232299804688	1350.561401367188	47.35468292236315	26.09317398071287	1034.319580078125	195.1854858398437	243.7484588623047	891.2340087890625	250.6473236083984	-106.1698226928711	1413.0048828125	21.27397918701162	-368.5572204589844	1078.663696289062	-74.2532196044923	-240.1507415771484	406.1268920898438	-79.11497497558599	4.87845754623411	192.8592071533203	163.9461669921875	278.1996765136719	940.4476318359375	-153.6652526855469	-537.1527099609375	1100.792236328125	1.693409323692189	-517.3558349609375	1103.103515625	138.5576629638671	-349.7069702148438	1060.452026367188	169.3554077148436	-61.37747192382812	829.6284790039062	-67.43659973144538	-144.4815063476562	641.9282836914062	111.0538787841796	-160.5717010498047	684.432861328125	215.9229278564453	-322.9933776855469	587.5985717773438	-145.3796386718751	-142.078125	287.3103637695312	120.1386413574218	-387.6446533203125	592.99755859375	-100.5871887207032	-229.5915069580078	256.6276245117188	157.9969787597656	17.68504905700685	1037.166748046875	-148.6577301025391	61.91486740112307	1067.855102539062	-196.4153900146485	65.05126953124997	1066.939819335938	247.3088378906249	275.6109008789062	936.5218505859375	200.1818389892578	248.4566650390625	887.5975341796875	-186.8745422363282	151.3643951416016	1354.36767578125	-46.49691772460944	30.37896156311036	1448.117431640625	-61.78764343261727	17.46610832214355	1476.20556640625	70.52797698974601	-29.69567489624026	1325.118896484375	169.2499999999999	-78.05531311035155	1319.737426757812	-132.2097778320313	-91.57787322998047	1269.86083984375	26.93959045410147	325.3399658203125	936.7996215820312	-227.4025421142578	324.3360900878906	926.8453369140625	288.1531372070312	
2	0.008333333333333333	143.4470977783203	1359.327514648438	97.40855407714837	-184.6221923828125	272.1758728027344	201.3313598632812	-211.1191558837891	1146.024169921875	28.36891746520987	-291.2867736816406	585.52001953125	-65.50120544433602	-66.46631622314452	869.8755493164062	-173.6030273437501	-331.5478210449219	1350.754272460938	47.36081314086901	26.26951217651365	1034.231201171875	195.2320709228515	243.9654998779297	891.1436157226562	250.4918518066406	-105.8184051513672	1413.264404296875	19.71324348449697	-368.2003173828125	1078.758422851562	-73.44686889648449	-226.2651214599609	420.0890502929688	-78.32708740234381	-9.054844856262227	179.464111328125	163.6897888183594	277.8952941894531	940.395751953125	-154.0288238525391	-536.5014038085938	1101.750366210938	1.848420858383045	-516.8427124023438	1103.549926757812	138.7604522705077	-349.5682067871094	1059.765258789062	169.5961608886718	-58.4252815246582	843.3522338867188	-67.47368621826179	-156.3984680175781	634.0885620117188	110.023582458496	-171.7288818359375	676.4956665039062	214.8451538085937	-314.4480895996094	599.2192993164062	-144.3140716552735	-152.7458038330078	278.692138671875	119.9698638916015	-379.2950134277344	601.7225341796875	-99.4370880126954	-241.1946563720703	249.6742401123047	156.3769531249999	17.16615676879885	1036.773681640625	-149.0964050292969	61.23886871337893	1067.324951171875	-197.0775909423829	65.44161224365232	1066.998413085938	247.1537780761718	275.7867126464844	936.4374389648438	199.9827575683593	248.2921752929688	887.44384765625	-187.1572723388672	151.2109985351562	1354.745849609375	-49.6757888793946	30.20892524719239	1448.563232421875	-64.16343688964852	18.26202392578124	1476.724975585938	68.16912078857413	-28.73155212402346	1325.271362304688	167.9144287109374	-78.43442535400389	1319.418579101562	-133.8971252441407	-91.02471923828125	1270.250610351562	25.48347663879386	325.1295166015625	936.5203857421875	-227.7859497070313	324.5428771972656	926.7706298828125	287.924072265625	
3	0.01666666666666667	144.3229675292969	1359.760498046875	94.40962219238274	-197.1935577392578	265.0926513671875	200.7401580810546	-210.3993835449219	1146.279052734375	27.61858558654776	-280.7640075683594	595.0344848632812	-64.97040557861335	-62.21970367431638	883.315673828125	-173.2762756347657	-330.8379211425781	1351.047973632812	47.29670333862292	26.56566619873044	1034.295654296875	195.2658691406249	244.2512512207031	891.1109008789062	250.2713165283203	-105.2650375366211	1413.553955078125	18.31252479553213	-367.9702758789062	1078.989868164062	-72.80271148681652	-212.3619842529297	432.4364318847656	-77.99182128906256	-23.80614089965822	167.5503387451172	163.7119445800781	277.7467956542969	940.2736206054688	-154.4776458740235	-535.9317626953125	1102.993530273438	1.69629883766161	-516.4593505859375	1104.260009765625	138.6450805664061	-349.5245666503906	1059.378295898438	169.7068634033202	-53.66944122314452	857.5040893554688	-68.59665679931646	-167.086181640625	627.5299072265625	109.0104064941406	-182.1312255859375	669.8880615234375	213.7955169677734	-305.7358093261719	608.8192138671875	-143.1590728759766	-160.3328857421875	273.2697143554688	121.2489318847656	-370.3518371582031	608.8019409179688	-98.76783752441415	-253.4665069580078	244.2090759277344	154.8018798828124	16.84669113159181	1036.539916992188	-149.5283660888672	60.88101196289065	1066.875244140625	-197.6772766113282	65.98789215087888	1067.188110351562	246.9172363281249	276.0466918945312	936.3577270507812	199.7303009033203	248.2271270751953	887.2405395507812	-187.4830322265625	151.1476593017578	1355.1103515625	-52.66983413696295	30.16620063781739	1449.044677734375	-66.36318969726571	19.14238929748534	1477.217651367188	65.99948883056632	-27.70855712890627	1325.455810546875	166.7178802490234	-78.52903747558592	1319.195068359375	-135.3917541503907	-90.41134643554688	1270.659057617188	24.12083816528311	324.3161315917969	935.8541870117188	-228.6236877441407	324.8592529296874	926.702880859375	287.6347351074219	
4	0.025	145.2806243896484	1360.141967773438	91.7477722167968	-210.7980651855469	260.0416870117188	200.7411804199218	-209.5376129150391	1146.597412109375	26.81920623779287	-270.0478820800781	602.6156005859375	-63.96140670776374	-58.66851425170896	896.4569702148438	-172.7203826904297	-330.072265625	1351.48193359375	47.12136459350573	27.0069999694824	1034.488525390625	195.1955566406249	244.4898986816406	891.1473999023438	250.1105041503906	-104.5358657836914	1413.82177734375	17.07260704040517	-367.91015625	1080.147705078125	-72.3540496826173	-194.1854400634766	442.6170043945312	-78.05097961425787	-39.54214096069338	157.2990875244141	163.7375183105469	277.7395935058594	940.0950927734375	-154.9704132080078	-535.4647827148438	1104.453125	1.156810760497914	-516.2708740234375	1105.313354492188	138.1985778808593	-349.6666259765625	1059.411987304688	169.6680755615233	-49.49128341674804	870.931640625	-67.96372985839849	-175.6296081542969	622.6229248046875	107.9662170410156	-191.6949920654297	664.399658203125	212.9888763427734	-294.8387451171875	615.023193359375	-143.2396392822266	-172.7565002441407	267.3620910644531	121.2671432495117	-360.6683959960938	613.6333618164062	-98.09201812744149	-266.8564147949219	240.2638854980469	153.7178802490234	16.81637573242189	1036.405151367188	-149.9597320556641	60.74881744384768	1066.559204101562	-198.3276519775391	66.480110168457	1068.091430664062	246.7949981689453	276.3320617675781	936.5595703125	199.451675415039	248.2667999267578	886.998779296875	-187.7852172851563	151.1746215820312	1355.532104492188	-55.47422409057624	30.10701751708985	1449.4853515625	-68.38353729248055	19.60191535949706	1477.526000976562	64.05696105957023	-26.71622848510744	1325.702026367188	165.5199432373046	-78.33773803710936	1319.140747070312	-136.6765441894532	-89.68515014648438	1271.006103515625	22.90309524536124	325.0634460449219	935.8283081054688	-228.6154479980469	324.6474609374999	927.1302490234375	287.7218627929688	
